<?xml version="1.0" standalone="no"?>
<svg viewBox="0 0 200 200" xmlns="http://www.w3.org/2000/svg">
  <path fill="#FF0066" d="M39.5,-68.2C53.1,-60.5,67.5,-53.9,74.3,-42.7C81.1,-31.5,80.4,-15.8,79,-0.8C77.7,14.2,75.7,28.4,70.1,41.7C64.5,55,55.3,67.3,43,73.9C30.7,80.4,15.3,81.2,-0.2,81.6C-15.8,82,-31.6,82.1,-43,75C-54.4,67.9,-61.3,53.7,-67,40C-72.6,26.3,-77.1,13.1,-80.1,-1.8C-83.2,-16.6,-84.8,-33.3,-78.3,-45.6C-71.8,-57.9,-57.2,-65.8,-42.8,-73.1C-28.4,-80.3,-14.2,-86.8,-0.6,-85.7C12.9,-84.6,25.8,-75.9,39.5,-68.2Z" transform="translate(100 100)" />
</svg>
