<?xml version="1.0" standalone="no"?>
<svg viewBox="0 0 200 200" xmlns="http://www.w3.org/2000/svg">
  <path fill="#FF0066" d="M36.9,-56.7C50.7,-48.5,66.9,-43.2,77.4,-31.9C87.9,-20.6,92.7,-3.3,86.2,9.4C79.8,22.2,62.1,30.3,49.9,41.9C37.8,53.4,31.1,68.4,21,71.2C10.9,73.9,-2.6,64.4,-17.8,60.2C-33,55.9,-49.9,56.9,-62.8,50C-75.6,43.1,-84.3,28.2,-85.8,12.8C-87.2,-2.6,-81.4,-18.5,-73.3,-32.3C-65.1,-46,-54.7,-57.4,-42.1,-66.2C-29.5,-75,-14.7,-81.2,-1.6,-78.7C11.5,-76.2,23,-65,36.9,-56.7Z" transform="translate(100 100)" />
</svg>
